<?xml version="1.0" standalone="no"?>
<!DOCTYPE svg PUBLIC "-//W3C//DTD SVG 20010904//EN"
 "http://www.w3.org/TR/2001/REC-SVG-20010904/DTD/svg10.dtd">
<svg version="1.0" xmlns="http://www.w3.org/2000/svg"
 width="119.000000pt" height="119.000000pt" viewBox="0 0 119.000000 119.000000"
 preserveAspectRatio="xMidYMid meet">

<g transform="translate(0.000000,119.000000) scale(0.100000,-0.100000)"
fill="#000000" stroke="none">
<path d="M245 1179 c-79 -12 -142 -45 -182 -97 -56 -73 -58 -92 -58 -487 0
-418 3 -434 83 -512 73 -70 102 -75 430 -80 409 -7 512 9 594 92 69 70 73 94
73 495 0 401 -3 422 -67 495 -82 93 -141 104 -528 103 -157 0 -312 -4 -345 -9z
m455 -356 c0 -4 -18 -73 -41 -153 -56 -200 -42 -190 -268 -190 -189 0 -201 3
-201 50 0 46 37 162 59 184 19 19 35 21 141 25 128 3 127 4 114 -46 -6 -21
-13 -23 -65 -23 -65 0 -72 -6 -84 -74 -9 -45 2 -56 57 -56 76 0 82 7 117 137
18 65 34 126 37 136 4 14 17 17 70 17 35 0 64 -3 64 -7z m136 -100 c-2 -10
-19 -70 -36 -133 -55 -205 -82 -230 -247 -230 -57 0 -103 3 -103 8 0 4 5 23
10 43 10 37 10 37 75 41 94 6 98 11 160 231 l16 57 65 0 c57 0 65 -2 60 -17z
m164 11 c0 -3 -11 -44 -24 -92 -14 -48 -30 -106 -36 -129 l-11 -42 -64 1 c-36
1 -65 3 -65 6 0 6 49 191 61 230 10 32 11 32 75 32 35 0 64 -3 64 -6z"/>
</g>
</svg>
