<?xml version="1.0" standalone="no"?>
<!DOCTYPE svg PUBLIC "-//W3C//DTD SVG 20010904//EN"
 "http://www.w3.org/TR/2001/REC-SVG-20010904/DTD/svg10.dtd">
<svg version="1.0" xmlns="http://www.w3.org/2000/svg" width="119.000000pt" height="119.000000pt" viewBox="0 0 119.000000 119.000000" preserveAspectRatio="xMidYMid meet">
  <g transform="translate(0.000000,119.000000) scale(0.100000,-0.100000)" fill="#FFFFFF" stroke="none">
    <path d="M235 1180 c-104 -15 -190 -86 -216 -178 -20 -68 -20 -746 0 -815 18 -63 77 -128 143 -158 53 -24 54 -24 433 -24 376 0 381 0 431 23 63 29 106 72 136 137 23 49 23 55 23 430 0 376 0 381 -23 430 -44 95 -105 138 -219 155 -78 11 -632 11 -708 0z m465 -357 c0 -3 -18 -72 -40 -152 -56 -200 -44 -191 -261 -191 -98 0 -178 4 -190 10 -24 13 -24 38 0 121 26 92 36 107 79 119 55 15 222 13 222 -2 -1 -51 -10 -58 -76 -58 l-63 0 -17 -56 c-19 -66 -14 -74 53 -74 81 0 87 6 122 137 18 65 34 126 37 136 4 14 17 17 70 17 35 0 64 -3 64 -7z m140 -85 c0 -2 -15 -60 -34 -130 -59 -222 -86 -248 -253 -248 -57 0 -103 3 -103 8 0 4 5 24 11 45 10 37 10 37 62 37 95 0 116 24 156 180 12 47 24 91 26 98 3 8 26 12 70 12 36 0 65 -1 65 -2z m160 -4 c0 -3 -11 -44 -24 -92 -14 -48 -30 -106 -36 -129 l-11 -42 -64 1 c-36 1 -65 4 -65 7 0 6 28 111 56 209 l15 52 64 0 c36 0 65 -3 65 -6z"/>
  </g>
</svg>

