<?xml version="1.0" encoding="UTF-8"?>
<svg xmlns="http://www.w3.org/2000/svg" version="1.1" height="182" width="266">
	<path d="m61.59,117.24h-0.33027c-3.2925,7.4709-11.693,19.211-27.83,19.211-16.63,0-33.43-13.16-33.43-43.77,0-30.243,18.281-44.83,35.408-44.83,12.186,0,20.75,6.2254,25.361,17.789h0.32925c0-22.413,0-50.347-0.6585-65.645,2.636,0.3547,5.106,0.88674,7.4097,0.88674,2.3048,0,4.6126-0.53204,7.4128-0.88674-1.4842,14.944-1.9776,61.556-1.9776,91.975,0,16.193,0.32926,28.466,0.49338,42.699-2.4689-0.35569-4.4454-0.88877-6.422-0.88877-1.9765,0-3.952,0.53308-6.2578,0.88877l0.49439-17.441zm-24.374,12.627c17.127,0,24.539-20.104,24.539-39.493,0-22.419-8.3985-35.051-24.044-35.051-15.808,0-23.219,16.902-23.219,38.431-0.001,28.462,12.019,36.113,22.724,36.113z" fill="#ffffff"/>
	<path d="m120.26,47.854c19.1,0,40.014,11.918,40.014,44.298,0,32.381-20.914,44.299-40.014,44.299-19.104,0-40.018-11.918-40.018-44.299,0.001-32.384,20.916-44.302,40.018-44.302zm0,82.905c19.427,0,25.521-18.679,25.521-38.606,0-19.926-6.0937-38.606-25.521-38.606-19.432,0-25.526,18.68-25.526,38.606,0.002,19.929,6.0958,38.606,25.526,38.606z" fill="#ffffff"/>
	<path d="m167.04,90.024c0-14.232-0.33128-30.246-1.319-40.384,2.4709,0.53205,4.9398,0.8908,7.4107,0.8908,2.4689,0,4.9418-0.35875,7.4087-0.8908-0.98978,10.138-1.315,22.592-1.315,33.268v18.502c0,13.698,0.65648,27.219,0.65648,40.918,0,9.9629-0.16516,18.148-5.2711,26.156-4.7757,7.4699-13.338,13.161-23.877,13.521l-1.1509-6.0511c0.82164,0.17936,1.4781,0.35772,2.633,0.35772,12.68,0,14.823-17.97,14.823-33.447v-52.842zm6.0887-65.775c4.6105,0,8.3975,4.0932,8.3975,9.0732,0,4.983-3.787,9.0731-8.3975,9.0731-4.6146,0-8.4016-4.0902-8.4016-9.0731,0-4.981,3.7788-9.0732,8.3985-9.0732z" fill="#ffffff"/>
	<path d="m225.99,47.854c19.102,0,40.011,11.918,40.011,44.298,0,32.381-20.909,44.299-40.011,44.299-19.103,0-40.017-11.918-40.017-44.299,0-32.384,20.91-44.302,40.017-44.302zm0,82.905c19.432,0,25.526-18.679,25.526-38.606,0-19.926-6.0947-38.606-25.526-38.606-19.433,0-25.527,18.68-25.527,38.606,0,19.929,6.0886,38.606,25.53,38.606z" fill="#ffffff"/>
	<path d="m94.63,33.034h50.799v5.2444h-50.802v-5.2444z" fill="#ffffff"/>
	<path d="m200.76,33.034h50.801v5.2455h-50.797v-5.2455z" fill="#ffffff"/>
</svg>
